#!OML:ASF F:\VICON\USERDATA\INSTALL\Justin_Nancy\Justin_Nancy.ASF
:FULLY-SPECIFIED
:DEGREES
95
root 8.79853 17.0786 -9.75617 6.81583 -37.0121 -2.1513
lowerback 6.32138 0.347137 3.41824
upperback -0.373556 0.814926 2.83392
thorax -3.92993 0.354816 0.935439
lowerneck -18.0671 -2.97882 -8.76858
upperneck 21.229 -2.87392 4.8949
head 9.94012 -1.4968 2.78059
rclavicle -6.65929e-015 -1.74931e-014
rhumerus -36.0117 -7.92754 -74.7882
rradius 53.6127
rwrist -2.30383
rhand -15.7072 11.2037
rfingers 7.12502
rthumb 10.4826 -18.515
lclavicle -6.65929e-015 -1.74931e-014
lhumerus -34.0331 19.2036 78.3005
lradius 24.9248
lwrist -12.2463
lhand -16.2467 26.2131
lfingers 7.12502
lthumb 9.96216 55.9574
rfemur 7.76352 8.38674 35.7659
rtibia 12.5939
rfoot -14.5219 -2.91111
rtoes 9.43362
lfemur -37.3192 -5.33168 -6.01692
ltibia 31.068
lfoot -9.33334 13.885
ltoes -8.08586
96
root 8.73062 17.05 -9.53818 7.20524 -37.7806 -2.61876
lowerback 6.24987 0.439077 4.0371
upperback -0.217122 0.967479 2.75801
thorax -3.71494 0.420449 0.496737
lowerneck -18.2044 -2.90651 -8.80351
upperneck 20.9882 -2.79502 5.11752
head 9.87676 -1.43142 2.87316
rclavicle 1.77912e-014 4.77083e-015
rhumerus -35.2348 -7.5883 -75.2785
rradius 53.3056
rwrist -1.59663
rhand -16.0747 10.8593
rfingers 7.12502
rthumb 10.1281 -18.877
lclavicle 1.77912e-014 4.77083e-015
lhumerus -33.9742 19.2615 78.1894
lradius 24.8777
lwrist -12.1127
lhand -16.5184 25.4902
lfingers 7.12502
lthumb 9.69998 55.2469
rfemur 9.20189 8.73293 35.7905
rtibia 11.3877
rfoot -14.6202 -2.07536
rtoes 9.10323
lfemur -37.4707 -6.26101 -4.96907
ltibia 28.8479
lfoot -9.55614 15.558
ltoes -7.19386
97
root 8.66047 17.0237 -9.33015 7.50353 -38.666 -2.70708
lowerback 6.05911 0.632883 4.36943
upperback -0.0132697 1.21745 2.45557
thorax -3.37738 0.543467 -0.0217414
lowerneck -18.7079 -2.95781 -8.4422
upperneck 20.7855 -2.9478 5.24509
head 9.9047 -1.44732 2.83273
rclavicle -1.85864e-014 4.13472e-014
rhumerus -34.3583 -7.68732 -75.8898
rradius 52.9242
rwrist -0.89158
rhand -16.1677 10.7784
rfingers 7.12502
rthumb 10.0384 -18.9622
lclavicle -1.85864e-014 4.13472e-014
lhumerus -33.5917 19.3266 77.9403
lradius 24.9036
lwrist -12.2716
lhand -16.7406 25.3418
lfingers 7.12502
lthumb 9.48566 55.1084
rfemur 10.5393 9.19706 35.4284
rtibia 10.0723
rfoot -14.3755 -1.25707
rtoes 7.6886
lfemur -37.8819 -7.40796 -4.04526
ltibia 27.0069
lfoot -10.3043 17.4483
ltoes -6.65083
98
root 8.59234 16.9857 -9.13382 8.13503 -39.2239 -3.3875
lowerback 6.19314 0.741808 4.91378
upperback 0.0123044 1.40856 2.51668
thorax -3.40929 0.628232 -0.280556
lowerneck -18.8843 -3.0278 -8.46306
upperneck 20.6525 -3.05159 5.38417
head 9.90049 -1.47618 2.86859
rclavicle 8.50798e-014 7.95139e-015
rhumerus -33.6556 -7.85045 -76.0512
rradius 52.2714
rwrist -0.411099
rhand -15.9076 11.5353
rfingers 7.12502
rthumb 10.2893 -18.193
lclavicle 8.50798e-014 7.95139e-015
lhumerus -33.4422 19.6895 77.8456
lradius 24.8542
lwrist -12.4867
lhand -16.6808 26.4246
lfingers 7.12502
lthumb 9.54337 56.1885
rfemur 11.7072 9.65285 35.6723
rtibia 8.90431
rfoot -13.9811 -0.663247
rtoes 6.22563
lfemur -38.4559 -8.36243 -2.70407
ltibia 25.4369
lfoot -11.1503 19.0909
ltoes -6.39579
99
root 8.51142 16.9621 -8.91877 8.26207 -39.7536 -3.51219
lowerback 6.30211 0.767608 4.94986
upperback -0.00431646 1.45598 2.60313
thorax -3.48743 0.649506 -0.217242
lowerneck -18.699 -2.90903 -8.7137
upperneck 20.5671 -2.8424 5.45286
head 9.82476 -1.39334 2.96371
rclavicle -6.4605e-014 -3.18055e-014
rhumerus -33.1143 -7.68288 -76.0402
rradius 51.542
rwrist -0.0205955
rhand -15.6884 11.7586
rfingers 7.12502
rthumb 10.5007 -17.9591
lclavicle -6.4605e-014 -3.18055e-014
lhumerus -33.5938 20.2671 77.7485
lradius 24.5325
lwrist -12.5952
lhand -16.9349 26.6433
lfingers 7.12502
lthumb 9.2982 56.4183
rfemur 13.0774 10.0028 35.4481
rtibia 7.80771
rfoot -13.7397 -0.0775515
rtoes 5.11447
lfemur -38.7458 -8.74197 -2.3289
ltibia 24.148
lfoot -11.9736 19.946
ltoes -7.30086
100
root 8.42508 16.9466 -8.69061 8.06938 -40.0702 -3.29522
lowerback 6.31473 0.815843 4.86849
upperback 0.119861 1.50567 2.50563
thorax -3.3628 0.67887 -0.276604
lowerneck -19.025 -2.91133 -8.51971
upperneck 20.5733 -2.8534 5.37584
head 9.88356 -1.38695 2.90186
rclavicle -3.68746e-014 1.66979e-014
rhumerus -32.6857 -7.83745 -76.1325
rradius 51.077
rwrist 0.512073
rhand -15.5223 11.4745
rfingers 7.12502
rthumb 10.661 -18.235
lclavicle -3.68746e-014 1.66979e-014
lhumerus -33.5647 20.8255 77.6047
lradius 24.3747
lwrist -13.1679
lhand -16.6026 26.9245
lfingers 7.12502
lthumb 9.6188 56.6849
rfemur 15.3352 10.0975 34.9917
rtibia 5.25419
rfoot -12.8271 0.662517
rtoes 4.78072
lfemur -38.936 -8.67623 -2.69561
ltibia 23.3398
lfoot -13.1038 19.7208
ltoes -7.50515
101
root 8.3439 16.92 -8.47665 8.23446 -40.2082 -3.75021
lowerback 6.64518 0.883557 5.26286
upperback 0.154566 1.64668 2.5436
thorax -3.49736 0.739239 -0.475414
lowerneck -19.3958 -3.02406 -8.31642
upperneck 20.7965 -3.03428 5.32551
head 10.0415 -1.4574 2.82633
rclavicle -4.48259e-014 2.06736e-014
rhumerus -32.5501 -8.22774 -76.0651
rradius 50.7095
rwrist 0.982783
rhand -15.2793 11.611
rfingers 7.12502
rthumb 10.8954 -18.0863
lclavicle -4.48259e-014 2.06736e-014
lhumerus -33.587 21.001 77.5677
lradius 24.3323
lwrist -13.7013
lhand -15.465 27.8481
lfingers 7.12502
lthumb 10.7163 57.5548
rfemur 18.9716 10.0647 35.1834
rtibia -5.08889e-014
rfoot -10.0992 1.70043
rtoes 4.97978
lfemur -39.0507 -8.62389 -2.56372
ltibia 22.7776
lfoot -13.7347 19.1901
ltoes -5.72143
102
root 8.22344 16.9189 -8.1819 7.42051 -40.5012 -2.84763
lowerback 5.90486 0.900847 4.84079
upperback 0.362194 1.57147 2.35406
thorax -2.87499 0.723855 -0.413943
lowerneck -19.0975 -3.03592 -8.37813
upperneck 20.6622 -3.07248 5.39553
head 9.9435 -1.47479 2.855
rclavicle 5.57591e-014 -3.65764e-014
rhumerus -32.3696 -8.50174 -75.9328
rradius 49.9338
rwrist 1.86713
rhand -15.3423 11.5529
rfingers 7.12502
rthumb 10.8346 -18.1477
lclavicle 5.57591e-014 -3.65764e-014
lhumerus -33.9154 21.0893 77.6275
lradius 24.2349
lwrist -13.8178
lhand -15.4554 28.0774
lfingers 7.12502
lthumb 10.7255 57.7836
rfemur 20.4346 10.0695 34.1257
rtibia 1.27222e-014
rfoot -9.92893 1.9948
rtoes 5.17262
lfemur -38.4505 -9.46118 -3.61646
ltibia 22.4313
lfoot -14.4366 19.8583
ltoes -9.09511
103
root 8.13517 16.8953 -7.9725 7.31586 -40.5044 -3.00435
lowerback 6.50206 0.893969 4.67202
upperback 0.242179 1.60263 2.54648
thorax -3.34353 0.73177 -0.13593
lowerneck -18.805 -3.0582 -8.40156
upperneck 20.5212 -3.09803 5.31181
head 9.84065 -1.50089 2.82429
rclavicle -9.83984e-015 -3.97569e-015
rhumerus -32.3193 -8.91902 -75.7235
rradius 49.2328
rwrist 2.62201
rhand -15.6429 11.3307
rfingers 7.12502
rthumb 10.5446 -18.3848
lclavicle -9.83984e-015 -3.97569e-015
lhumerus -34.0861 21.2771 77.6976
lradius 23.9569
lwrist -14.5067
lhand -15.3104 28.0361
lfingers 7.12502
lthumb 10.8654 57.7351
rfemur 21.4031 9.86197 34.0736
rtibia -9.54166e-015
rfoot -9.53452 2.45355
rtoes 5.50322
lfemur -38.302 -7.71669 -4.79132
ltibia 22.3109
lfoot -14.3445 16.7942
ltoes -4.56702
